<svg xmlns="http://www.w3.org/2000/svg" xmlns:xlink="http://www.w3.org/1999/xlink" width="500" zoomAndPan="magnify" viewBox="0 0 375 374.999991" height="500" preserveAspectRatio="xMidYMid meet" version="1.0"><defs><clipPath id="5455fefa45"><path d="M 0 35.453125 L 375 35.453125 L 375 375 L 0 375 Z M 0 35.453125 " clip-rule="nonzero"/></clipPath></defs><g clip-path="url(#5455fefa45)"><path fill="#cb6ce6" d="M 276.785156 71.296875 L 196.429688 71.296875 L 196.429688 44.511719 C 196.429688 43.921875 196.371094 43.34375 196.257812 42.769531 C 196.144531 42.191406 195.972656 41.632812 195.75 41.09375 C 195.523438 40.550781 195.25 40.035156 194.921875 39.550781 C 194.597656 39.0625 194.226562 38.609375 193.8125 38.195312 C 193.398438 37.78125 192.949219 37.410156 192.460938 37.085938 C 191.972656 36.761719 191.457031 36.484375 190.917969 36.261719 C 190.375 36.035156 189.816406 35.867188 189.242188 35.753906 C 188.667969 35.636719 188.085938 35.582031 187.5 35.582031 C 186.914062 35.582031 186.332031 35.636719 185.757812 35.753906 C 185.183594 35.867188 184.625 36.035156 184.082031 36.261719 C 183.542969 36.484375 183.027344 36.761719 182.539062 37.085938 C 182.050781 37.410156 181.601562 37.78125 181.1875 38.195312 C 180.773438 38.609375 180.402344 39.0625 180.074219 39.550781 C 179.75 40.035156 179.476562 40.550781 179.25 41.09375 C 179.027344 41.632812 178.855469 42.191406 178.742188 42.769531 C 178.628906 43.34375 178.570312 43.921875 178.570312 44.511719 L 178.570312 71.296875 L 98.214844 71.296875 C 96.753906 71.296875 95.292969 71.371094 93.839844 71.515625 C 92.386719 71.660156 90.941406 71.875 89.507812 72.160156 C 88.074219 72.445312 86.660156 72.800781 85.257812 73.226562 C 83.859375 73.652344 82.488281 74.144531 81.136719 74.703125 C 79.785156 75.265625 78.46875 75.890625 77.179688 76.578125 C 75.890625 77.269531 74.636719 78.019531 73.421875 78.832031 C 72.207031 79.644531 71.035156 80.515625 69.902344 81.441406 C 68.773438 82.367188 67.691406 83.347656 66.660156 84.382812 C 65.625 85.417969 64.644531 86.5 63.71875 87.628906 C 62.789062 88.757812 61.921875 89.929688 61.109375 91.144531 C 60.296875 92.359375 59.542969 93.613281 58.855469 94.902344 C 58.164062 96.191406 57.539062 97.511719 56.980469 98.859375 C 56.421875 100.210938 55.929688 101.585938 55.503906 102.984375 C 55.078125 104.382812 54.722656 105.796875 54.4375 107.230469 C 54.148438 108.664062 53.933594 110.109375 53.789062 111.5625 C 53.644531 113.019531 53.574219 114.476562 53.570312 115.9375 L 53.570312 276.652344 C 53.574219 278.113281 53.644531 279.574219 53.789062 281.027344 C 53.933594 282.480469 54.148438 283.925781 54.4375 285.359375 C 54.722656 286.792969 55.078125 288.207031 55.503906 289.605469 C 55.929688 291.003906 56.421875 292.378906 56.980469 293.730469 C 57.539062 295.082031 58.164062 296.398438 58.855469 297.6875 C 59.542969 298.976562 60.296875 300.230469 61.109375 301.445312 C 61.921875 302.660156 62.789062 303.832031 63.71875 304.960938 C 64.644531 306.09375 65.625 307.175781 66.660156 308.207031 C 67.691406 309.242188 68.773438 310.222656 69.902344 311.148438 C 71.035156 312.078125 72.207031 312.945312 73.421875 313.757812 C 74.636719 314.570312 75.890625 315.324219 77.179688 316.011719 C 78.46875 316.703125 79.785156 317.328125 81.136719 317.886719 C 82.488281 318.445312 83.859375 318.9375 85.257812 319.363281 C 86.660156 319.789062 88.074219 320.144531 89.507812 320.429688 C 90.941406 320.71875 92.386719 320.933594 93.839844 321.078125 C 95.292969 321.222656 96.753906 321.292969 98.214844 321.296875 L 147.007812 321.296875 L 180.070312 370.890625 C 180.273438 371.195312 180.496094 371.488281 180.734375 371.765625 C 180.972656 372.042969 181.226562 372.304688 181.5 372.546875 C 181.769531 372.792969 182.054688 373.023438 182.355469 373.234375 C 182.652344 373.445312 182.964844 373.636719 183.289062 373.808594 C 183.609375 373.984375 183.941406 374.132812 184.285156 374.265625 C 184.625 374.398438 184.972656 374.507812 185.328125 374.597656 C 185.683594 374.6875 186.042969 374.753906 186.40625 374.796875 C 186.769531 374.84375 187.132812 374.867188 187.5 374.867188 C 187.867188 374.867188 188.230469 374.84375 188.59375 374.796875 C 188.957031 374.753906 189.316406 374.6875 189.671875 374.597656 C 190.027344 374.507812 190.375 374.398438 190.714844 374.265625 C 191.058594 374.132812 191.390625 373.984375 191.710938 373.808594 C 192.035156 373.636719 192.347656 373.445312 192.644531 373.234375 C 192.945312 373.023438 193.230469 372.792969 193.5 372.546875 C 193.773438 372.304688 194.027344 372.042969 194.265625 371.765625 C 194.503906 371.488281 194.726562 371.195312 194.929688 370.890625 L 227.992188 321.296875 L 276.785156 321.296875 C 278.246094 321.292969 279.707031 321.222656 281.160156 321.078125 C 282.613281 320.933594 284.058594 320.71875 285.492188 320.429688 C 286.925781 320.144531 288.339844 319.789062 289.742188 319.363281 C 291.140625 318.9375 292.511719 318.445312 293.863281 317.886719 C 295.214844 317.328125 296.53125 316.703125 297.820312 316.011719 C 299.109375 315.324219 300.363281 314.570312 301.578125 313.757812 C 302.792969 312.945312 303.964844 312.078125 305.097656 311.148438 C 306.226562 310.222656 307.308594 309.242188 308.339844 308.207031 C 309.375 307.175781 310.355469 306.09375 311.28125 304.960938 C 312.210938 303.832031 313.078125 302.660156 313.890625 301.445312 C 314.703125 300.230469 315.457031 298.976562 316.144531 297.6875 C 316.835938 296.398438 317.460938 295.082031 318.019531 293.730469 C 318.578125 292.378906 319.070312 291.003906 319.496094 289.605469 C 319.921875 288.207031 320.277344 286.792969 320.5625 285.359375 C 320.851562 283.925781 321.066406 282.480469 321.210938 281.027344 C 321.355469 279.574219 321.425781 278.113281 321.429688 276.652344 L 321.429688 115.9375 C 321.425781 114.476562 321.355469 113.019531 321.210938 111.5625 C 321.066406 110.109375 320.851562 108.664062 320.5625 107.230469 C 320.277344 105.796875 319.921875 104.382812 319.496094 102.984375 C 319.070312 101.585938 318.578125 100.210938 318.019531 98.859375 C 317.460938 97.511719 316.835938 96.191406 316.144531 94.902344 C 315.457031 93.613281 314.703125 92.359375 313.890625 91.144531 C 313.078125 89.929688 312.210938 88.757812 311.28125 87.628906 C 310.355469 86.5 309.375 85.417969 308.339844 84.382812 C 307.308594 83.347656 306.226562 82.367188 305.09375 81.441406 C 303.964844 80.515625 302.792969 79.644531 301.578125 78.832031 C 300.363281 78.019531 299.109375 77.269531 297.820312 76.578125 C 296.53125 75.890625 295.214844 75.265625 293.863281 74.703125 C 292.511719 74.144531 291.140625 73.652344 289.738281 73.226562 C 288.339844 72.800781 286.925781 72.445312 285.492188 72.160156 C 284.058594 71.875 282.613281 71.660156 281.160156 71.515625 C 279.707031 71.371094 278.246094 71.296875 276.785156 71.296875 Z M 303.570312 276.652344 C 303.570312 277.53125 303.527344 278.40625 303.441406 279.277344 C 303.351562 280.148438 303.222656 281.015625 303.050781 281.875 C 302.878906 282.734375 302.667969 283.585938 302.410156 284.425781 C 302.15625 285.265625 301.859375 286.089844 301.523438 286.898438 C 301.1875 287.707031 300.8125 288.5 300.398438 289.273438 C 299.984375 290.046875 299.535156 290.796875 299.046875 291.527344 C 298.5625 292.257812 298.039062 292.960938 297.480469 293.636719 C 296.925781 294.316406 296.335938 294.964844 295.71875 295.585938 C 295.097656 296.203125 294.449219 296.792969 293.769531 297.347656 C 293.09375 297.90625 292.390625 298.429688 291.660156 298.914062 C 290.929688 299.402344 290.179688 299.851562 289.40625 300.265625 C 288.632812 300.679688 287.839844 301.054688 287.03125 301.390625 C 286.222656 301.726562 285.398438 302.023438 284.558594 302.277344 C 283.71875 302.535156 282.871094 302.746094 282.007812 302.917969 C 281.148438 303.089844 280.28125 303.21875 279.410156 303.308594 C 278.539062 303.394531 277.664062 303.4375 276.785156 303.4375 L 223.214844 303.4375 C 222.480469 303.441406 221.757812 303.53125 221.042969 303.707031 C 220.332031 303.886719 219.652344 304.152344 219.003906 304.496094 C 218.355469 304.84375 217.757812 305.265625 217.214844 305.757812 C 216.671875 306.25 216.195312 306.804688 215.785156 307.414062 L 187.5 349.84375 L 159.214844 307.414062 C 158.804688 306.804688 158.328125 306.25 157.785156 305.757812 C 157.242188 305.265625 156.644531 304.84375 155.996094 304.496094 C 155.347656 304.152344 154.667969 303.886719 153.957031 303.707031 C 153.242188 303.53125 152.519531 303.4375 151.785156 303.4375 L 98.214844 303.4375 C 97.335938 303.4375 96.460938 303.394531 95.589844 303.308594 C 94.71875 303.21875 93.851562 303.089844 92.992188 302.917969 C 92.128906 302.746094 91.28125 302.535156 90.441406 302.277344 C 89.601562 302.023438 88.777344 301.726562 87.96875 301.390625 C 87.160156 301.054688 86.367188 300.679688 85.59375 300.265625 C 84.820312 299.851562 84.070312 299.402344 83.339844 298.914062 C 82.609375 298.425781 81.90625 297.90625 81.230469 297.347656 C 80.550781 296.792969 79.902344 296.203125 79.28125 295.585938 C 78.664062 294.964844 78.074219 294.316406 77.519531 293.636719 C 76.960938 292.960938 76.4375 292.257812 75.953125 291.527344 C 75.464844 290.796875 75.015625 290.046875 74.601562 289.273438 C 74.1875 288.5 73.8125 287.707031 73.476562 286.898438 C 73.140625 286.089844 72.84375 285.265625 72.589844 284.425781 C 72.332031 283.585938 72.121094 282.734375 71.949219 281.875 C 71.777344 281.015625 71.648438 280.148438 71.558594 279.277344 C 71.472656 278.40625 71.429688 277.53125 71.429688 276.652344 L 71.429688 249.867188 L 303.570312 249.867188 Z M 303.570312 232.011719 L 71.429688 232.011719 L 71.429688 115.9375 C 71.429688 115.0625 71.472656 114.1875 71.558594 113.3125 C 71.648438 112.441406 71.777344 111.574219 71.949219 110.714844 C 72.121094 109.855469 72.332031 109.003906 72.589844 108.167969 C 72.84375 107.328125 73.140625 106.503906 73.476562 105.691406 C 73.8125 104.882812 74.1875 104.089844 74.601562 103.316406 C 75.015625 102.542969 75.464844 101.792969 75.953125 101.0625 C 76.4375 100.335938 76.960938 99.632812 77.519531 98.953125 C 78.074219 98.277344 78.664062 97.625 79.28125 97.007812 C 79.902344 96.386719 80.550781 95.796875 81.230469 95.242188 C 81.90625 94.683594 82.609375 94.164062 83.339844 93.675781 C 84.070312 93.1875 84.820312 92.738281 85.59375 92.324219 C 86.367188 91.910156 87.160156 91.535156 87.96875 91.199219 C 88.777344 90.863281 89.601562 90.566406 90.441406 90.3125 C 91.28125 90.058594 92.128906 89.84375 92.992188 89.671875 C 93.851562 89.5 94.71875 89.371094 95.589844 89.285156 C 96.460938 89.199219 97.335938 89.152344 98.214844 89.152344 L 276.785156 89.152344 C 277.664062 89.152344 278.539062 89.199219 279.410156 89.285156 C 280.28125 89.371094 281.148438 89.5 282.007812 89.671875 C 282.871094 89.84375 283.71875 90.058594 284.558594 90.3125 C 285.398438 90.566406 286.222656 90.863281 287.03125 91.199219 C 287.839844 91.535156 288.632812 91.910156 289.40625 92.324219 C 290.179688 92.738281 290.929688 93.1875 291.660156 93.675781 C 292.390625 94.164062 293.09375 94.683594 293.769531 95.242188 C 294.449219 95.796875 295.097656 96.386719 295.71875 97.007812 C 296.335938 97.625 296.925781 98.277344 297.480469 98.953125 C 298.039062 99.632812 298.5625 100.335938 299.046875 101.0625 C 299.535156 101.792969 299.984375 102.542969 300.398438 103.316406 C 300.8125 104.089844 301.1875 104.882812 301.523438 105.691406 C 301.859375 106.503906 302.15625 107.328125 302.410156 108.167969 C 302.667969 109.003906 302.878906 109.855469 303.050781 110.714844 C 303.222656 111.574219 303.351562 112.441406 303.441406 113.3125 C 303.527344 114.1875 303.570312 115.0625 303.570312 115.9375 Z M 151.785156 169.511719 C 151.785156 170.09375 151.757812 170.679688 151.699219 171.261719 C 151.640625 171.84375 151.558594 172.417969 151.441406 172.992188 C 151.328125 173.566406 151.1875 174.132812 151.015625 174.695312 C 150.847656 175.253906 150.648438 175.804688 150.425781 176.34375 C 150.203125 176.882812 149.953125 177.410156 149.675781 177.925781 C 149.402344 178.441406 149.101562 178.945312 148.777344 179.429688 C 148.453125 179.917969 148.101562 180.386719 147.730469 180.839844 C 147.359375 181.289062 146.96875 181.722656 146.554688 182.136719 C 146.140625 182.550781 145.710938 182.941406 145.257812 183.3125 C 144.804688 183.683594 144.335938 184.03125 143.847656 184.359375 C 143.363281 184.683594 142.863281 184.984375 142.347656 185.257812 C 141.832031 185.535156 141.300781 185.785156 140.761719 186.007812 C 140.222656 186.230469 139.671875 186.429688 139.113281 186.597656 C 138.550781 186.769531 137.984375 186.910156 137.414062 187.023438 C 136.839844 187.136719 136.261719 187.222656 135.679688 187.28125 C 135.097656 187.339844 134.511719 187.367188 133.929688 187.367188 C 133.34375 187.367188 132.761719 187.339844 132.179688 187.28125 C 131.597656 187.222656 131.019531 187.136719 130.445312 187.023438 C 129.871094 186.910156 129.304688 186.769531 128.746094 186.597656 C 128.183594 186.429688 127.636719 186.230469 127.09375 186.007812 C 126.554688 185.785156 126.027344 185.535156 125.511719 185.257812 C 124.996094 184.984375 124.492188 184.683594 124.007812 184.359375 C 123.519531 184.03125 123.050781 183.683594 122.601562 183.3125 C 122.148438 182.941406 121.714844 182.550781 121.300781 182.136719 C 120.886719 181.722656 120.496094 181.289062 120.125 180.839844 C 119.753906 180.386719 119.40625 179.917969 119.082031 179.429688 C 118.757812 178.945312 118.457031 178.441406 118.179688 177.925781 C 117.902344 177.410156 117.65625 176.882812 117.429688 176.34375 C 117.207031 175.804688 117.011719 175.253906 116.839844 174.695312 C 116.671875 174.132812 116.527344 173.566406 116.414062 172.992188 C 116.300781 172.417969 116.214844 171.84375 116.15625 171.261719 C 116.101562 170.679688 116.070312 170.09375 116.070312 169.511719 C 116.070312 168.925781 116.101562 168.339844 116.15625 167.757812 C 116.214844 167.175781 116.300781 166.601562 116.414062 166.027344 C 116.527344 165.453125 116.671875 164.886719 116.839844 164.324219 C 117.011719 163.765625 117.207031 163.214844 117.429688 162.675781 C 117.65625 162.136719 117.902344 161.609375 118.179688 161.09375 C 118.457031 160.574219 118.757812 160.074219 119.082031 159.589844 C 119.40625 159.101562 119.753906 158.632812 120.125 158.179688 C 120.496094 157.730469 120.886719 157.296875 121.300781 156.882812 C 121.714844 156.46875 122.148438 156.078125 122.601562 155.707031 C 123.050781 155.335938 123.519531 154.988281 124.007812 154.660156 C 124.492188 154.335938 124.996094 154.035156 125.511719 153.761719 C 126.027344 153.484375 126.554688 153.234375 127.09375 153.011719 C 127.636719 152.789062 128.183594 152.589844 128.746094 152.421875 C 129.304688 152.25 129.871094 152.109375 130.445312 151.996094 C 131.019531 151.882812 131.597656 151.796875 132.179688 151.738281 C 132.761719 151.679688 133.34375 151.652344 133.929688 151.652344 C 134.511719 151.652344 135.097656 151.679688 135.679688 151.738281 C 136.261719 151.796875 136.839844 151.882812 137.414062 151.996094 C 137.984375 152.109375 138.550781 152.25 139.113281 152.421875 C 139.671875 152.589844 140.222656 152.789062 140.761719 153.011719 C 141.300781 153.234375 141.832031 153.484375 142.347656 153.761719 C 142.863281 154.035156 143.363281 154.335938 143.847656 154.660156 C 144.335938 154.988281 144.804688 155.335938 145.257812 155.707031 C 145.710938 156.078125 146.140625 156.46875 146.554688 156.882812 C 146.96875 157.296875 147.359375 157.730469 147.730469 158.179688 C 148.101562 158.632812 148.453125 159.101562 148.777344 159.589844 C 149.101562 160.074219 149.402344 160.578125 149.675781 161.09375 C 149.953125 161.609375 150.203125 162.136719 150.425781 162.675781 C 150.648438 163.214844 150.847656 163.765625 151.015625 164.324219 C 151.1875 164.886719 151.328125 165.453125 151.441406 166.027344 C 151.558594 166.601562 151.640625 167.175781 151.699219 167.757812 C 151.757812 168.339844 151.785156 168.925781 151.785156 169.511719 Z M 258.929688 169.511719 C 258.929688 170.09375 258.898438 170.679688 258.84375 171.261719 C 258.785156 171.84375 258.699219 172.417969 258.585938 172.992188 C 258.472656 173.566406 258.328125 174.132812 258.160156 174.695312 C 257.988281 175.253906 257.792969 175.804688 257.570312 176.34375 C 257.34375 176.882812 257.09375 177.410156 256.820312 177.925781 C 256.542969 178.441406 256.242188 178.945312 255.917969 179.429688 C 255.59375 179.917969 255.246094 180.386719 254.875 180.839844 C 254.503906 181.289062 254.113281 181.722656 253.699219 182.136719 C 253.285156 182.550781 252.851562 182.941406 252.398438 183.3125 C 251.949219 183.683594 251.480469 184.03125 250.992188 184.359375 C 250.507812 184.683594 250.003906 184.984375 249.488281 185.257812 C 248.972656 185.535156 248.445312 185.785156 247.90625 186.007812 C 247.363281 186.230469 246.816406 186.429688 246.253906 186.597656 C 245.695312 186.769531 245.128906 186.910156 244.554688 187.023438 C 243.980469 187.136719 243.402344 187.222656 242.820312 187.28125 C 242.238281 187.339844 241.65625 187.367188 241.070312 187.367188 C 240.488281 187.367188 239.902344 187.339844 239.320312 187.28125 C 238.738281 187.222656 238.160156 187.136719 237.585938 187.023438 C 237.015625 186.910156 236.449219 186.769531 235.886719 186.597656 C 235.328125 186.429688 234.777344 186.230469 234.238281 186.007812 C 233.699219 185.785156 233.167969 185.535156 232.652344 185.257812 C 232.136719 184.984375 231.636719 184.683594 231.152344 184.359375 C 230.664062 184.03125 230.195312 183.683594 229.742188 183.3125 C 229.289062 182.941406 228.859375 182.550781 228.445312 182.136719 C 228.03125 181.722656 227.636719 181.289062 227.269531 180.839844 C 226.898438 180.386719 226.546875 179.917969 226.222656 179.429688 C 225.898438 178.945312 225.597656 178.441406 225.324219 177.925781 C 225.046875 177.410156 224.796875 176.882812 224.574219 176.34375 C 224.351562 175.804688 224.152344 175.253906 223.984375 174.695312 C 223.8125 174.132812 223.671875 173.566406 223.558594 172.992188 C 223.441406 172.417969 223.359375 171.84375 223.300781 171.261719 C 223.242188 170.679688 223.214844 170.09375 223.214844 169.511719 C 223.214844 168.925781 223.242188 168.339844 223.300781 167.757812 C 223.359375 167.175781 223.441406 166.601562 223.558594 166.027344 C 223.671875 165.453125 223.8125 164.886719 223.984375 164.324219 C 224.152344 163.765625 224.351562 163.214844 224.574219 162.675781 C 224.796875 162.136719 225.046875 161.609375 225.324219 161.09375 C 225.597656 160.574219 225.898438 160.074219 226.222656 159.589844 C 226.546875 159.101562 226.898438 158.632812 227.269531 158.179688 C 227.636719 157.730469 228.03125 157.296875 228.445312 156.882812 C 228.859375 156.46875 229.289062 156.078125 229.742188 155.707031 C 230.195312 155.335938 230.664062 154.988281 231.152344 154.660156 C 231.636719 154.335938 232.136719 154.035156 232.652344 153.761719 C 233.167969 153.484375 233.699219 153.234375 234.238281 153.011719 C 234.777344 152.789062 235.328125 152.589844 235.886719 152.421875 C 236.449219 152.25 237.015625 152.109375 237.585938 151.996094 C 238.160156 151.882812 238.738281 151.796875 239.320312 151.738281 C 239.902344 151.679688 240.488281 151.652344 241.070312 151.652344 C 241.65625 151.652344 242.238281 151.679688 242.820312 151.738281 C 243.402344 151.796875 243.980469 151.882812 244.554688 151.996094 C 245.128906 152.109375 245.695312 152.25 246.253906 152.421875 C 246.816406 152.589844 247.363281 152.789062 247.90625 153.011719 C 248.445312 153.234375 248.972656 153.484375 249.488281 153.761719 C 250.003906 154.035156 250.507812 154.335938 250.992188 154.660156 C 251.480469 154.988281 251.949219 155.335938 252.398438 155.707031 C 252.851562 156.078125 253.285156 156.46875 253.699219 156.882812 C 254.113281 157.296875 254.503906 157.730469 254.875 158.179688 C 255.246094 158.632812 255.59375 159.101562 255.917969 159.589844 C 256.242188 160.074219 256.542969 160.578125 256.820312 161.09375 C 257.09375 161.609375 257.34375 162.136719 257.570312 162.675781 C 257.792969 163.214844 257.988281 163.765625 258.160156 164.324219 C 258.328125 164.886719 258.472656 165.453125 258.585938 166.027344 C 258.699219 166.601562 258.785156 167.175781 258.84375 167.757812 C 258.898438 168.339844 258.929688 168.925781 258.929688 169.511719 Z M 17.855469 133.796875 L 17.855469 205.222656 C 17.855469 205.808594 17.800781 206.390625 17.6875 206.964844 C 17.570312 207.539062 17.402344 208.097656 17.175781 208.640625 C 16.953125 209.183594 16.679688 209.695312 16.351562 210.183594 C 16.027344 210.671875 15.65625 211.121094 15.242188 211.539062 C 14.828125 211.953125 14.375 212.320312 13.890625 212.648438 C 13.402344 212.972656 12.886719 213.25 12.34375 213.472656 C 11.804688 213.699219 11.246094 213.867188 10.671875 213.980469 C 10.09375 214.09375 9.515625 214.152344 8.929688 214.152344 C 8.34375 214.152344 7.761719 214.09375 7.1875 213.980469 C 6.613281 213.867188 6.054688 213.699219 5.511719 213.472656 C 4.96875 213.25 4.457031 212.972656 3.96875 212.648438 C 3.480469 212.320312 3.03125 211.953125 2.613281 211.539062 C 2.199219 211.121094 1.832031 210.671875 1.503906 210.183594 C 1.179688 209.695312 0.902344 209.183594 0.679688 208.640625 C 0.457031 208.097656 0.285156 207.539062 0.171875 206.964844 C 0.0585938 206.390625 0 205.808594 0 205.222656 L 0 133.796875 C 0 133.210938 0.0585938 132.628906 0.171875 132.054688 C 0.285156 131.480469 0.457031 130.921875 0.679688 130.378906 C 0.902344 129.835938 1.179688 129.324219 1.503906 128.835938 C 1.832031 128.347656 2.199219 127.898438 2.613281 127.480469 C 3.03125 127.066406 3.480469 126.699219 3.96875 126.371094 C 4.457031 126.046875 4.96875 125.769531 5.511719 125.546875 C 6.054688 125.320312 6.613281 125.152344 7.1875 125.039062 C 7.761719 124.925781 8.34375 124.867188 8.929688 124.867188 C 9.515625 124.867188 10.09375 124.925781 10.671875 125.039062 C 11.246094 125.152344 11.804688 125.320312 12.34375 125.546875 C 12.886719 125.769531 13.402344 126.046875 13.890625 126.371094 C 14.375 126.699219 14.828125 127.066406 15.242188 127.480469 C 15.65625 127.898438 16.027344 128.347656 16.351562 128.835938 C 16.679688 129.324219 16.953125 129.835938 17.175781 130.378906 C 17.402344 130.921875 17.570312 131.480469 17.6875 132.054688 C 17.800781 132.628906 17.855469 133.210938 17.855469 133.796875 Z M 375 133.796875 L 375 205.222656 C 375 205.808594 374.941406 206.390625 374.828125 206.964844 C 374.714844 207.539062 374.542969 208.097656 374.320312 208.640625 C 374.097656 209.183594 373.820312 209.695312 373.496094 210.183594 C 373.167969 210.671875 372.800781 211.121094 372.386719 211.539062 C 371.96875 211.953125 371.519531 212.320312 371.03125 212.648438 C 370.542969 212.972656 370.03125 213.25 369.488281 213.472656 C 368.945312 213.699219 368.386719 213.867188 367.8125 213.980469 C 367.238281 214.09375 366.65625 214.152344 366.070312 214.152344 C 365.484375 214.152344 364.90625 214.09375 364.328125 213.980469 C 363.753906 213.867188 363.195312 213.699219 362.65625 213.472656 C 362.113281 213.25 361.597656 212.972656 361.109375 212.648438 C 360.625 212.320312 360.171875 211.953125 359.757812 211.539062 C 359.34375 211.121094 358.972656 210.671875 358.648438 210.183594 C 358.320312 209.695312 358.046875 209.183594 357.824219 208.640625 C 357.597656 208.097656 357.429688 207.539062 357.3125 206.964844 C 357.199219 206.390625 357.144531 205.808594 357.144531 205.222656 L 357.144531 133.796875 C 357.144531 133.210938 357.199219 132.628906 357.3125 132.054688 C 357.429688 131.480469 357.597656 130.921875 357.824219 130.378906 C 358.046875 129.835938 358.320312 129.324219 358.648438 128.835938 C 358.972656 128.347656 359.34375 127.898438 359.757812 127.480469 C 360.171875 127.066406 360.625 126.699219 361.109375 126.371094 C 361.597656 126.046875 362.113281 125.769531 362.65625 125.546875 C 363.195312 125.320312 363.753906 125.152344 364.328125 125.039062 C 364.90625 124.925781 365.484375 124.867188 366.070312 124.867188 C 366.65625 124.867188 367.238281 124.925781 367.8125 125.039062 C 368.386719 125.152344 368.945312 125.320312 369.488281 125.546875 C 370.03125 125.769531 370.542969 126.046875 371.03125 126.371094 C 371.519531 126.699219 371.96875 127.066406 372.386719 127.480469 C 372.800781 127.898438 373.167969 128.347656 373.496094 128.835938 C 373.820312 129.324219 374.097656 129.835938 374.320312 130.378906 C 374.542969 130.921875 374.714844 131.480469 374.828125 132.054688 C 374.941406 132.628906 375 133.210938 375 133.796875 Z M 375 133.796875 " fill-opacity="1" fill-rule="nonzero"/></g></svg>